<?xml version="1.0" encoding="UTF-8" standalone="no"?>
<!-- Created with Inkscape (http://www.inkscape.org/) -->

<svg
   version="1.1"
   id="svg2"
   width="377.94666"
   height="83.146667"
   viewBox="0 0 377.94666 83.146667"
   sodipodi:docname="anime.eps"
   xmlns:inkscape="http://www.inkscape.org/namespaces/inkscape"
   xmlns:sodipodi="http://sodipodi.sourceforge.net/DTD/sodipodi-0.dtd"
   xmlns="http://www.w3.org/2000/svg"
   xmlns:svg="http://www.w3.org/2000/svg">
  <defs
     id="defs6" />
  <sodipodi:namedview
     id="namedview4"
     pagecolor="#ffffff"
     bordercolor="#000000"
     borderopacity="0.25"
     inkscape:showpageshadow="2"
     inkscape:pageopacity="0.0"
     inkscape:pagecheckerboard="0"
     inkscape:deskcolor="#d1d1d1" />
  <g
     id="g8"
     inkscape:groupmode="layer"
     inkscape:label="ink_ext_XXXXXX"
     transform="matrix(1.3333333,0,0,-1.3333333,0,83.146667)">
    <g
       id="g10"
       transform="scale(0.1)">
      <path
         d="M 411.094,411.445 H 271.66 c -39.472,0 -50.574,-3.867 -52.5,-44.441 h 191.934 c 0,0 0,44.449 0,44.441 z M 2834.65,561.484 V 411.445 h -62.4 l 61.59,-61.574 V 220.195 h -61.59 l 62.4,-70.175 V 0 0 h -417.21 c -48.82,0 -79.42,6.02344 -104.38,30.793 l -91.93,88.152 V 18.2227 0 0 h -18.05 -121.11 -18.07 l -61.61,62.1406 V 411.445 h -60.11 V 18.2227 0 h -18.08 -121.08 -18.08 l -61.6,62.1406 V 411.453 c 0,-0.008 -59.83,-0.008 -59.83,-0.008 V 0 h -157.23 l -48.85,62.1406 V 0 0 h -157.22 l -49.92,62.1406 V 0 0 h -157.23 l -61.6,62.1406 V 411.445 H 839.199 V 0 H 681.965 L 629.934,62.1406 V 0 0 H 472.703 L 411.094,62.1406 V 176.797 H 218.84 L 218.84,0 H 61.6094 L 0,62.1406 V 434.766 c 0,94.011 63.3086,188.855 204.766,188.855 h 363.562 l 52.031,-52.488 v 52.488 h 401.821 c 47.63,0 93.1,-14.617 112.41,-34.09 l 104,-105.215 v 139.305 h 157.24 l 48.84,-49.266 v 49.266 h 548.36 c 45.34,0 81.51,-10.328 108.4,-30.894 l 105.82,-102.543 c 6.85,93.183 52.43,133.437 148.59,133.437 h 417.21 l 61.6,-62.137"
         style="fill:#211d1d;fill-opacity:1;fill-rule:nonzero;stroke:none"
         id="path12" />
      <path
         d="m 2386.91,491.824 h 368.07 v 113.574 h -399.15 c -97.25,0 -131.44,-43.066 -131.44,-141.636 V 215.164 c 0,-88.934 39.51,-134.7929 131.44,-134.7929 h 399.15 V 193.934 h -368.07 c -24.3,0 -43.02,22.648 -43.02,43.808 v 62.817 h 410.29 v 93.218 h -410.29 v 55.071 c 0,26.101 25.27,42.976 43.02,42.976 z M 1256.67,605.398 V 80.3711 h 121.09 V 605.398 Z m 206.07,0 V 80.3711 h 121.1 V 491.824 h 102.53 c 27.61,0 55.05,-15.008 55.05,-73.933 V 80.3711 h 121.09 V 491.824 h 102.81 c 27.62,0 55.05,-15.008 55.05,-73.933 V 80.3711 h 121.09 V 441.191 c 0,84.383 -27.35,164.207 -148.44,164.207 z m -824.31,0 V 80.3711 H 759.531 V 491.824 H 981.73 c 27.63,0 67.79,-15.008 67.79,-73.933 V 80.3711 h 121.11 V 441.191 c 0,84.383 -27.36,164.207 -148.46,164.207 z M 139.172,348.777 h 290 V 491.824 H 210.066 c -57.566,0 -70.894,-16.804 -70.894,-78.758 z M 550.266,605.398 V 80.3711 H 429.172 V 257.168 h -290 V 80.3711 H 18.0781 V 434.766 c 0,93.214 65.5821,170.632 186.6879,170.632 h 345.5"
         style="fill:#ffffff;fill-opacity:1;fill-rule:nonzero;stroke:none"
         id="path14" />
    </g>
  </g>
</svg>
